<svg xmlns="http://www.w3.org/2000/svg" xmlns:xlink="http://www.w3.org/1999/xlink" width="840" height="385.65"><rect width="840" height="385.65" rx="5" ry="5" class="a"/><svg y="0%" x="0%"><circle cx="20" cy="20" r="6" fill="#ff5f58"/><circle cx="40" cy="20" r="6" fill="#ffbd2e"/><circle cx="60" cy="20" r="6" fill="#18c132"/></svg><svg height="325.65" viewBox="0 0 80 32.565" width="800" x="15" xmlns="http://www.w3.org/2000/svg" xmlns:xlink="http://www.w3.org/1999/xlink" y="50"><style>@keyframes r{0%{transform:translateX(0)}5.45%{transform:translateX(-80px)}7.03%{transform:translateX(-160px)}11.14%{transform:translateX(-320px)}12.95%{transform:translateX(-400px)}19.31%{transform:translateX(-480px)}19.32%{transform:translateX(-560px)}19.33%{transform:translateX(-640px)}19.34%{transform:translateX(-720px)}19.35%{transform:translateX(-800px)}23.19%{transform:translateX(-880px)}25.26%{transform:translateX(-960px)}27.58%{transform:translateX(-1040px)}29.85%{transform:translateX(-1200px)}29.86%{transform:translateX(-1280px)}29.87%{transform:translateX(-1360px)}37.81%{transform:translateX(-1440px)}37.82%{transform:translateX(-1520px)}43.46%{transform:translateX(-1680px)}45.9%{transform:translateX(-1840px)}49.9%{transform:translateX(-1920px)}49.91%{transform:translateX(-2000px)}50.02%{transform:translateX(-2080px)}50.03%{transform:translateX(-2240px)}57.93%{transform:translateX(-2320px)}57.94%{transform:translateX(-2400px)}57.95%{transform:translateX(-2560px)}61.81%{transform:translateX(-2640px)}61.82%{transform:translateX(-2800px)}61.83%{transform:translateX(-2880px)}63.87%{transform:translateX(-2960px)}67.79%{transform:translateX(-3040px)}74.4%{transform:translateX(-3120px)}74.42%{transform:translateX(-3280px)}74.43%{transform:translateX(-3360px)}74.48%{transform:translateX(-3440px)}91.33%{transform:translateX(-3600px)}91.75%{transform:translateX(-3680px)}to{transform:translateX(-3840px)}}.a{fill:#282d35}.g,.k{fill:#a8cc8c;white-space:pre}.k{fill:#b9bfca;font-weight:700}.l,.m,.n,.o,.p{fill:#b9c0cb;white-space:pre}.m,.n,.o,.p{fill:#71bef2}.n,.o,.p{fill:#6f7783}.o,.p{fill:#66c2cd}.p{fill:#b9c0cb;font-weight:700}</style><g font-family="Monaco,Consolas,Menlo,'Bitstream Vera Sans Mono','Powerline Symbols',monospace" font-size="1.67"><defs><symbol id="1"><text y="1.67" style="white-space:pre" fill="#71bef2" font-weight="700">github/dwmkerr/terminal-ai</text><text x="27.054" y="1.67" class="g">feat/change-current-provider</text><text x="56.112" y="1.67" style="white-space:pre" fill="#e88388">!</text><text x="58.116" y="1.67" style="white-space:pre" fill="#d290e4">conda/</text><text x="64.128" y="1.67" style="white-space:pre" fill="#d290e4" font-weight="700">base</text></symbol><symbol id="2"><text y="1.67" class="k">$</text></symbol><symbol id="3"><text y="1.67" class="k">$</text><text x="2.004" y="1.67" class="l">ai</text></symbol><symbol id="4"><text y="1.67" class="m">?</text><text x="2.004" y="1.67" class="k">chat:</text></symbol><symbol id="5"><text y="1.67" class="n">&lt;Enter&gt;</text><text x="8.016" y="1.67" class="n">Menu</text><text x="65.13" y="1.67" class="n">ollama:llama3.2</text></symbol><symbol id="6"><text y="1.67" class="g">✔</text><text x="2.004" y="1.67" class="k">chat:</text></symbol><symbol id="7"><text x="2.004" y="1.67" class="l">Chat</text><text x="7.014" y="1.67" class="l">(Fullscreen)</text></symbol><symbol id="8"><text x="2.004" y="1.67" class="l">Attach</text><text x="9.018" y="1.67" class="l">File</text></symbol><symbol id="9"><text x="2.004" y="1.67" class="l">Change</text><text x="9.018" y="1.67" class="l">Provider/Model</text></symbol><symbol id="10"><text x="2.004" y="1.67" class="l">Quit</text></symbol><symbol id="11"><text x="2.004" y="1.67" class="l">Chat</text></symbol><symbol id="12"><text y="1.67" class="g">✔</text><text x="2.004" y="1.67" class="k">chat:</text><text x="8.016" y="1.67" class="o">Change</text><text x="15.03" y="1.67" class="o">Provider/Model</text></symbol><symbol id="13"><text y="1.67" class="m">?</text><text x="2.004" y="1.67" class="p">Select</text><text x="9.018" y="1.67" class="p">Provider:</text><text x="19.038" y="1.67" class="l">(Use</text><text x="24.048" y="1.67" class="l">arrow</text><text x="30.06" y="1.67" class="l">keys)</text></symbol><symbol id="14"><text x="2.004" y="1.67" class="l">openai</text></symbol><symbol id="15"><text x="2.004" y="1.67" class="l">claude</text></symbol><symbol id="16"><text x="2.004" y="1.67" class="l">gemini</text></symbol><symbol id="17"><text y="1.67" class="o">❯</text><text x="2.004" y="1.67" class="o">ollama</text><text x="9.018" y="1.67" class="o">(current)</text></symbol><symbol id="18"><text y="1.67" class="m">?</text><text x="2.004" y="1.67" class="p">Select</text><text x="9.018" y="1.67" class="p">Provider:</text></symbol><symbol id="19"><text y="1.67" class="o">❯</text><text x="2.004" y="1.67" class="o">gemini</text></symbol><symbol id="20"><text x="2.004" y="1.67" class="l">ollama</text><text x="9.018" y="1.67" class="l">(current)</text></symbol><symbol id="21"><text y="1.67" class="o">❯</text><text x="2.004" y="1.67" class="o">claude</text></symbol><symbol id="22"><text y="1.67" class="g">✔</text><text x="2.004" y="1.67" class="p">Select</text><text x="9.018" y="1.67" class="p">Provider:</text><text x="19.038" y="1.67" class="o">openai</text></symbol><symbol id="23"><text y="1.67" class="m">?</text><text x="2.004" y="1.67" class="p">Select</text><text x="9.018" y="1.67" class="p">model:</text></symbol><symbol id="24"><text y="1.67" class="o">❯</text><text x="2.004" y="1.67" class="o">(Keep</text><text x="8.016" y="1.67" class="o">existing)</text><text x="18.036" y="1.67" class="o">gpt-4o-mini-2024-07-18</text></symbol><symbol id="25"><text x="2.004" y="1.67" class="l">──────────────</text></symbol><symbol id="26"><text x="2.004" y="1.67" class="l">GPT-4</text><text x="8.016" y="1.67" class="l">(gpt-4-0613)</text></symbol><symbol id="27"><text x="2.004" y="1.67" class="l">GPT-4.5</text><text x="10.02" y="1.67" class="l">(gpt-4.5-preview)</text></symbol><symbol id="28"><text x="2.004" y="1.67" class="l">GPT-4o</text><text x="9.018" y="1.67" class="l">(gpt-4o-2024-08-06)</text></symbol><symbol id="29"><text x="2.004" y="1.67" class="l">GPT-4o</text><text x="9.018" y="1.67" class="l">mini</text><text x="14.028" y="1.67" class="l">(gpt-4o-mini-2024-07-18)</text></symbol><symbol id="30"><text x="2.004" y="1.67" class="l">o1</text><text x="5.01" y="1.67" class="l">(o1-2024-12-17)</text></symbol><symbol id="31"><text y="1.67" class="l">(Use</text><text x="5.01" y="1.67" class="l">arrow</text><text x="11.022" y="1.67" class="l">keys</text><text x="16.032" y="1.67" class="l">to</text><text x="19.038" y="1.67" class="l">reveal</text><text x="26.052" y="1.67" class="l">more</text><text x="31.062" y="1.67" class="l">choices)</text></symbol><symbol id="32"><text y="1.67" class="o">Keep</text><text x="5.01" y="1.67" class="o">existing</text><text x="14.028" y="1.67" class="o">model</text><text x="20.04" y="1.67" class="o">gpt-4o-mini-2024-07-18</text></symbol><symbol id="33"><text y="1.67" class="m">?</text><text x="2.004" y="1.67" class="p">Select</text><text x="9.018" y="1.67" class="p">model:</text><text x="16.032" y="1.67" class="o">j</text></symbol><symbol id="34"><text y="1.67" class="o">❯</text><text x="2.004" y="1.67" class="o">j</text></symbol><symbol id="35"><text y="1.67" class="o">Custom</text><text x="7.014" y="1.67" class="o">model:</text><text x="14.028" y="1.67" class="o">j</text></symbol><symbol id="36"><text x="2.004" y="1.67" class="l">(Keep</text><text x="8.016" y="1.67" class="l">existing)</text><text x="18.036" y="1.67" class="l">gpt-4o-mini-2024-07-18</text></symbol><symbol id="37"><text y="1.67" class="o">❯</text><text x="2.004" y="1.67" class="o">GPT-4.5</text><text x="10.02" y="1.67" class="o">(gpt-4.5-preview)</text></symbol><symbol id="38"><text y="1.67" class="o">Enhanced</text><text x="9.018" y="1.67" class="o">GPT</text><text x="13.026" y="1.67" class="o">model</text><text x="19.038" y="1.67" class="o">with</text><text x="24.048" y="1.67" class="o">improved</text><text x="33.066" y="1.67" class="o">reasoning</text><text x="43.086" y="1.67" class="o">and</text><text x="47.094" y="1.67" class="o">conversational</text><text x="62.124" y="1.67" class="o">abilities</text></symbol><symbol id="39"><text y="1.67" class="g">✔</text><text x="2.004" y="1.67" class="p">Select</text><text x="9.018" y="1.67" class="p">model:</text><text x="16.032" y="1.67" class="o">GPT-4.5</text><text x="24.048" y="1.67" class="o">(gpt-4.5-preview)</text></symbol><symbol id="40"><text y="1.67" class="n">&lt;Enter&gt;</text><text x="8.016" y="1.67" class="n">Menu</text><text x="58.116" y="1.67" class="n">openai:gpt-4.5-preview</text></symbol><symbol id="41"><text y="1.67" class="l">Goodbye!</text></symbol><symbol id="a"><path fill="transparent" d="M0 0h80v15H0z"/></symbol></defs><path class="a" d="M0 0h80v32.565H0z"/><g style="animation-duration:17.777502000000002s;animation-iteration-count:infinite;animation-name:r;animation-timing-function:steps(1,end)"><svg width="3920"><svg><use xlink:href="#a"/><use xlink:href="#1" y="2.171"/><use xlink:href="#2" y="4.342"/></svg><svg x="80"><use xlink:href="#a"/><use xlink:href="#1" y="2.171"/><text y="6.012" class="k">$</text><text x="2.004" y="6.012" class="l">a</text></svg><svg x="160"><use xlink:href="#a"/><use xlink:href="#1" y="2.171"/><use xlink:href="#3" y="4.342"/></svg><svg x="240"><use xlink:href="#a"/><use xlink:href="#1" y="2.171"/><use xlink:href="#3" y="4.342"/></svg><svg x="320"><use xlink:href="#a"/><use xlink:href="#1" y="2.171"/><use xlink:href="#3" y="4.342"/></svg><svg x="400"><use xlink:href="#a"/><use xlink:href="#1" y="2.171"/><use xlink:href="#3" y="4.342"/><use xlink:href="#4" y="6.513"/><use xlink:href="#5" y="8.684"/></svg><svg x="480"><use xlink:href="#a"/><use xlink:href="#1" y="2.171"/><use xlink:href="#3" y="4.342"/><use xlink:href="#4" y="6.513"/><use xlink:href="#5" y="8.684"/></svg><svg x="560"><use xlink:href="#a"/><use xlink:href="#1" y="2.171"/><use xlink:href="#3" y="4.342"/><use xlink:href="#6" y="6.513"/></svg><svg x="640"><use xlink:href="#a"/><use xlink:href="#1" y="2.171"/><use xlink:href="#3" y="4.342"/><use xlink:href="#6" y="6.513"/></svg><svg x="720"><use xlink:href="#a"/><use xlink:href="#1" y="2.171"/><use xlink:href="#3" y="4.342"/></svg><svg x="800"><use xlink:href="#a"/><use xlink:href="#1" y="2.171"/><use xlink:href="#3" y="4.342"/><text y="8.183" class="m">?</text><text x="2.004" y="8.183" class="k">chat:</text><text x="8.016" y="8.183" class="l">(Use</text><text x="13.026" y="8.183" class="l">arrow</text><text x="19.038" y="8.183" class="l">keys)</text><text y="10.354" class="o">❯</text><text x="2.004" y="10.354" class="o">Chat</text><use xlink:href="#7" y="10.855"/><use xlink:href="#8" y="13.026"/><use xlink:href="#9" y="15.197"/><use xlink:href="#10" y="17.368"/></svg><svg x="880"><use xlink:href="#a"/><use xlink:href="#1" y="2.171"/><use xlink:href="#3" y="4.342"/><use xlink:href="#4" y="6.513"/><use xlink:href="#11" y="8.684"/><text y="12.525" class="o">❯</text><text x="2.004" y="12.525" class="o">Chat</text><text x="7.014" y="12.525" class="o">(Fullscreen)</text><use xlink:href="#8" y="13.026"/><use xlink:href="#9" y="15.197"/><use xlink:href="#10" y="17.368"/></svg><svg x="960"><use xlink:href="#a"/><use xlink:href="#1" y="2.171"/><use xlink:href="#3" y="4.342"/><use xlink:href="#4" y="6.513"/><use xlink:href="#11" y="8.684"/><use xlink:href="#7" y="10.855"/><text y="14.696" class="o">❯</text><text x="2.004" y="14.696" class="o">Attach</text><text x="9.018" y="14.696" class="o">File</text><use xlink:href="#9" y="15.197"/><use xlink:href="#10" y="17.368"/></svg><svg x="1040"><use xlink:href="#a"/><use xlink:href="#1" y="2.171"/><use xlink:href="#3" y="4.342"/><use xlink:href="#4" y="6.513"/><use xlink:href="#11" y="8.684"/><use xlink:href="#7" y="10.855"/><use xlink:href="#8" y="13.026"/><text y="16.867" class="o">❯</text><text x="2.004" y="16.867" class="o">Change</text><text x="9.018" y="16.867" class="o">Provider/Model</text><use xlink:href="#10" y="17.368"/></svg><svg x="1120"><use xlink:href="#a"/><use xlink:href="#1" y="2.171"/><use xlink:href="#3" y="4.342"/><use xlink:href="#12" y="6.513"/></svg><svg x="1200"><use xlink:href="#a"/><use xlink:href="#1" y="2.171"/><use xlink:href="#3" y="4.342"/><use xlink:href="#12" y="6.513"/></svg><svg x="1280"><use xlink:href="#a"/><use xlink:href="#1" y="2.171"/><use xlink:href="#3" y="4.342"/></svg><svg x="1360"><use xlink:href="#a"/><use xlink:href="#1" y="2.171"/><use xlink:href="#3" y="4.342"/><use xlink:href="#13" y="6.513"/><use xlink:href="#14" y="8.684"/><use xlink:href="#15" y="10.855"/><use xlink:href="#16" y="13.026"/><use xlink:href="#17" y="15.197"/></svg><svg x="1440"><use xlink:href="#a"/><use xlink:href="#1" y="2.171"/><use xlink:href="#3" y="4.342"/><use xlink:href="#13" y="6.513"/><use xlink:href="#14" y="8.684"/><use xlink:href="#15" y="10.855"/><use xlink:href="#16" y="13.026"/><use xlink:href="#17" y="15.197"/></svg><svg x="1520"><use xlink:href="#a"/><use xlink:href="#1" y="2.171"/><use xlink:href="#3" y="4.342"/><use xlink:href="#18" y="6.513"/><use xlink:href="#14" y="8.684"/><use xlink:href="#15" y="10.855"/><use xlink:href="#19" y="13.026"/><use xlink:href="#20" y="15.197"/></svg><svg x="1600"><use xlink:href="#a"/><use xlink:href="#1" y="2.171"/><use xlink:href="#3" y="4.342"/><use xlink:href="#18" y="6.513"/><use xlink:href="#14" y="8.684"/><use xlink:href="#15" y="10.855"/><use xlink:href="#19" y="13.026"/><use xlink:href="#20" y="15.197"/></svg><svg x="1680"><use xlink:href="#a"/><use xlink:href="#1" y="2.171"/><use xlink:href="#3" y="4.342"/><use xlink:href="#18" y="6.513"/><use xlink:href="#14" y="8.684"/><use xlink:href="#21" y="10.855"/><use xlink:href="#16" y="13.026"/><use xlink:href="#20" y="15.197"/></svg><svg x="1760"><use xlink:href="#a"/><use xlink:href="#1" y="2.171"/><use xlink:href="#3" y="4.342"/><use xlink:href="#18" y="6.513"/><use xlink:href="#14" y="8.684"/><use xlink:href="#21" y="10.855"/><use xlink:href="#16" y="13.026"/><use xlink:href="#20" y="15.197"/></svg><svg x="1840"><use xlink:href="#a"/><use xlink:href="#1" y="2.171"/><use xlink:href="#3" y="4.342"/><use xlink:href="#18" y="6.513"/><text y="10.354" class="o">❯</text><text x="2.004" y="10.354" class="o">openai</text><use xlink:href="#15" y="10.855"/><use xlink:href="#16" y="13.026"/><use xlink:href="#20" y="15.197"/></svg><svg x="1920"><use xlink:href="#a"/><use xlink:href="#1" y="2.171"/><use xlink:href="#3" y="4.342"/><use xlink:href="#22" y="6.513"/></svg><svg x="2000"><use xlink:href="#a"/><use xlink:href="#1" y="2.171"/><use xlink:href="#3" y="4.342"/><use xlink:href="#22" y="6.513"/></svg><svg x="2080"><use xlink:href="#a"/><use xlink:href="#1" y="2.171"/><use xlink:href="#3" y="4.342"/><use xlink:href="#22" y="6.513"/><use xlink:href="#23" y="8.684"/></svg><svg x="2160"><use xlink:href="#a"/><use xlink:href="#1" y="2.171"/><use xlink:href="#3" y="4.342"/><use xlink:href="#22" y="6.513"/><use xlink:href="#23" y="8.684"/><use xlink:href="#24" y="10.855"/><use xlink:href="#25" y="13.026"/><use xlink:href="#26" y="15.197"/><use xlink:href="#27" y="17.368"/><use xlink:href="#28" y="19.539"/><use xlink:href="#29" y="21.71"/><use xlink:href="#30" y="23.881"/><use xlink:href="#31" y="26.052"/><use xlink:href="#32" y="28.223"/></svg><svg x="2240"><use xlink:href="#a"/><use xlink:href="#1" y="2.171"/><use xlink:href="#3" y="4.342"/><use xlink:href="#22" y="6.513"/><use xlink:href="#23" y="8.684"/><use xlink:href="#24" y="10.855"/><use xlink:href="#25" y="13.026"/><use xlink:href="#26" y="15.197"/><use xlink:href="#27" y="17.368"/><use xlink:href="#28" y="19.539"/><use xlink:href="#29" y="21.71"/><use xlink:href="#30" y="23.881"/><use xlink:href="#31" y="26.052"/><use xlink:href="#32" y="28.223"/></svg><svg x="2320"><use xlink:href="#a"/><use xlink:href="#1" y="2.171"/><use xlink:href="#3" y="4.342"/><use xlink:href="#22" y="6.513"/><use xlink:href="#23" y="8.684"/><use xlink:href="#24" y="10.855"/><use xlink:href="#25" y="13.026"/><use xlink:href="#26" y="15.197"/><use xlink:href="#27" y="17.368"/><use xlink:href="#28" y="19.539"/><use xlink:href="#29" y="21.71"/><use xlink:href="#30" y="23.881"/><use xlink:href="#31" y="26.052"/><use xlink:href="#32" y="28.223"/></svg><svg x="2400"><use xlink:href="#a"/><use xlink:href="#1" y="2.171"/><use xlink:href="#3" y="4.342"/><use xlink:href="#22" y="6.513"/><use xlink:href="#33" y="8.684"/><use xlink:href="#24" y="10.855"/><use xlink:href="#25" y="13.026"/><use xlink:href="#26" y="15.197"/><use xlink:href="#27" y="17.368"/><use xlink:href="#28" y="19.539"/><use xlink:href="#29" y="21.71"/><use xlink:href="#30" y="23.881"/><use xlink:href="#31" y="26.052"/><use xlink:href="#32" y="28.223"/></svg><svg x="2480"><use xlink:href="#a"/><use xlink:href="#1" y="2.171"/><use xlink:href="#3" y="4.342"/><use xlink:href="#22" y="6.513"/><use xlink:href="#33" y="8.684"/><use xlink:href="#34" y="10.855"/><use xlink:href="#35" y="13.026"/></svg><svg x="2560"><use xlink:href="#a"/><use xlink:href="#1" y="2.171"/><use xlink:href="#3" y="4.342"/><use xlink:href="#22" y="6.513"/><use xlink:href="#33" y="8.684"/><use xlink:href="#34" y="10.855"/><use xlink:href="#35" y="13.026"/></svg><svg x="2640"><use xlink:href="#a"/><use xlink:href="#1" y="2.171"/><use xlink:href="#3" y="4.342"/><use xlink:href="#22" y="6.513"/><use xlink:href="#33" y="8.684"/><use xlink:href="#34" y="10.855"/><use xlink:href="#35" y="13.026"/></svg><svg x="2720"><use xlink:href="#a"/><use xlink:href="#1" y="2.171"/><use xlink:href="#3" y="4.342"/><use xlink:href="#22" y="6.513"/><use xlink:href="#23" y="8.684"/><use xlink:href="#34" y="10.855"/><use xlink:href="#35" y="13.026"/></svg><svg x="2800"><use xlink:href="#a"/><use xlink:href="#1" y="2.171"/><use xlink:href="#3" y="4.342"/><use xlink:href="#22" y="6.513"/><use xlink:href="#23" y="8.684"/><use xlink:href="#24" y="10.855"/><use xlink:href="#25" y="13.026"/><use xlink:href="#26" y="15.197"/><use xlink:href="#27" y="17.368"/><use xlink:href="#28" y="19.539"/><use xlink:href="#29" y="21.71"/><use xlink:href="#30" y="23.881"/><use xlink:href="#31" y="26.052"/><use xlink:href="#32" y="28.223"/></svg><svg x="2880"><use xlink:href="#a"/><use xlink:href="#1" y="2.171"/><use xlink:href="#3" y="4.342"/><use xlink:href="#22" y="6.513"/><use xlink:href="#23" y="8.684"/><use xlink:href="#24" y="10.855"/><use xlink:href="#25" y="13.026"/><use xlink:href="#26" y="15.197"/><use xlink:href="#27" y="17.368"/><use xlink:href="#28" y="19.539"/><use xlink:href="#29" y="21.71"/><use xlink:href="#30" y="23.881"/><use xlink:href="#31" y="26.052"/><use xlink:href="#32" y="28.223"/></svg><svg x="2960"><use xlink:href="#a"/><use xlink:href="#1" y="2.171"/><use xlink:href="#3" y="4.342"/><use xlink:href="#22" y="6.513"/><use xlink:href="#23" y="8.684"/><use xlink:href="#36" y="10.855"/><use xlink:href="#25" y="13.026"/><text y="16.867" class="o">❯</text><text x="2.004" y="16.867" class="o">GPT-4</text><text x="8.016" y="16.867" class="o">(gpt-4-0613)</text><use xlink:href="#27" y="17.368"/><use xlink:href="#28" y="19.539"/><use xlink:href="#29" y="21.71"/><use xlink:href="#30" y="23.881"/><text y="27.722" class="o">An</text><text x="3.006" y="27.722" class="o">older</text><text x="9.018" y="27.722" class="o">high-intelligence</text><text x="27.054" y="27.722" class="o">GPT</text><text x="31.062" y="27.722" class="o">model</text></svg><svg x="3040"><use xlink:href="#a"/><use xlink:href="#1" y="2.171"/><use xlink:href="#3" y="4.342"/><use xlink:href="#22" y="6.513"/><use xlink:href="#23" y="8.684"/><use xlink:href="#36" y="10.855"/><use xlink:href="#25" y="13.026"/><use xlink:href="#26" y="15.197"/><use xlink:href="#37" y="17.368"/><use xlink:href="#28" y="19.539"/><use xlink:href="#29" y="21.71"/><use xlink:href="#30" y="23.881"/><use xlink:href="#38" y="26.052"/></svg><svg x="3120"><use xlink:href="#a"/><use xlink:href="#1" y="2.171"/><use xlink:href="#3" y="4.342"/><use xlink:href="#22" y="6.513"/><use xlink:href="#23" y="8.684"/><use xlink:href="#36" y="10.855"/><use xlink:href="#25" y="13.026"/><use xlink:href="#26" y="15.197"/><use xlink:href="#37" y="17.368"/><use xlink:href="#28" y="19.539"/><use xlink:href="#29" y="21.71"/><use xlink:href="#30" y="23.881"/><use xlink:href="#38" y="26.052"/></svg><svg x="3200"><use xlink:href="#a"/><use xlink:href="#1" y="2.171"/><use xlink:href="#3" y="4.342"/><use xlink:href="#22" y="6.513"/><use xlink:href="#23" y="8.684"/><use xlink:href="#36" y="10.855"/><use xlink:href="#25" y="13.026"/><use xlink:href="#26" y="15.197"/><use xlink:href="#37" y="17.368"/><use xlink:href="#28" y="19.539"/><use xlink:href="#29" y="21.71"/><use xlink:href="#30" y="23.881"/><use xlink:href="#38" y="26.052"/></svg><svg x="3280"><use xlink:href="#a"/><use xlink:href="#1" y="2.171"/><use xlink:href="#3" y="4.342"/><use xlink:href="#22" y="6.513"/><use xlink:href="#39" y="8.684"/></svg><svg x="3360"><use xlink:href="#a"/><use xlink:href="#1" y="2.171"/><use xlink:href="#3" y="4.342"/><use xlink:href="#22" y="6.513"/><use xlink:href="#39" y="8.684"/></svg><svg x="3440"><use xlink:href="#a"/><use xlink:href="#1" y="2.171"/><use xlink:href="#3" y="4.342"/><use xlink:href="#22" y="6.513"/><use xlink:href="#39" y="8.684"/><use xlink:href="#4" y="10.855"/><use xlink:href="#40" y="13.026"/></svg><svg x="3520"><use xlink:href="#a"/><use xlink:href="#1" y="2.171"/><use xlink:href="#3" y="4.342"/><use xlink:href="#22" y="6.513"/><use xlink:href="#39" y="8.684"/><use xlink:href="#4" y="10.855"/><use xlink:href="#40" y="13.026"/></svg><svg x="3600"><use xlink:href="#a"/><use xlink:href="#1" y="2.171"/><use xlink:href="#3" y="4.342"/><use xlink:href="#22" y="6.513"/><use xlink:href="#39" y="8.684"/><use xlink:href="#4" y="10.855"/><use xlink:href="#40" y="13.026"/><use xlink:href="#41" y="15.197"/></svg><svg x="3680"><use xlink:href="#a"/><use xlink:href="#1" y="2.171"/><use xlink:href="#3" y="4.342"/><use xlink:href="#22" y="6.513"/><use xlink:href="#39" y="8.684"/><use xlink:href="#4" y="10.855"/><use xlink:href="#40" y="13.026"/><use xlink:href="#41" y="15.197"/><use xlink:href="#1" y="19.539"/><use xlink:href="#2" y="21.71"/></svg><svg x="3760"><use xlink:href="#a"/><use xlink:href="#1" y="2.171"/><use xlink:href="#3" y="4.342"/><use xlink:href="#22" y="6.513"/><use xlink:href="#39" y="8.684"/><use xlink:href="#4" y="10.855"/><use xlink:href="#40" y="13.026"/><use xlink:href="#41" y="15.197"/><use xlink:href="#1" y="19.539"/><use xlink:href="#2" y="21.71"/></svg><svg x="3840"><use xlink:href="#a"/><use xlink:href="#1" y="2.171"/><use xlink:href="#3" y="4.342"/><use xlink:href="#22" y="6.513"/><use xlink:href="#39" y="8.684"/><use xlink:href="#4" y="10.855"/><use xlink:href="#40" y="13.026"/><use xlink:href="#41" y="15.197"/><use xlink:href="#1" y="19.539"/><use xlink:href="#2" y="21.71"/><text y="25.551" class="l">exit</text></svg></svg></g></g></svg></svg>