<svg xmlns="http://www.w3.org/2000/svg" xmlns:xlink="http://www.w3.org/1999/xlink" width="840" height="385.65"><rect width="840" height="385.65" rx="5" ry="5" class="a"/><svg y="0%" x="0%"><circle cx="20" cy="20" r="6" fill="#ff5f58"/><circle cx="40" cy="20" r="6" fill="#ffbd2e"/><circle cx="60" cy="20" r="6" fill="#18c132"/></svg><svg height="325.65" viewBox="0 0 80 32.565" width="800" x="15" xmlns="http://www.w3.org/2000/svg" xmlns:xlink="http://www.w3.org/1999/xlink" y="50"><style>@keyframes q{0%{transform:translateX(0)}6.03%{transform:translateX(-80px)}6.57%{transform:translateX(-160px)}8.8%{transform:translateX(-240px)}9.8%{transform:translateX(-320px)}14.91%{transform:translateX(-400px)}14.92%{transform:translateX(-480px)}15.24%{transform:translateX(-560px)}15.25%{transform:translateX(-640px)}15.6%{transform:translateX(-720px)}15.61%{transform:translateX(-800px)}16.02%{transform:translateX(-880px)}16.03%{transform:translateX(-960px)}16.47%{transform:translateX(-1040px)}16.48%{transform:translateX(-1120px)}16.87%{transform:translateX(-1280px)}17.24%{transform:translateX(-1440px)}17.65%{transform:translateX(-1600px)}18.66%{transform:translateX(-1680px)}18.67%{transform:translateX(-1760px)}18.95%{transform:translateX(-1840px)}18.96%{transform:translateX(-1920px)}19.7%{transform:translateX(-2080px)}20.44%{transform:translateX(-2160px)}20.45%{transform:translateX(-2240px)}20.79%{transform:translateX(-2320px)}20.8%{transform:translateX(-2400px)}21.04%{transform:translateX(-2560px)}21.43%{transform:translateX(-2640px)}21.44%{transform:translateX(-2720px)}21.75%{transform:translateX(-2880px)}22.12%{transform:translateX(-3040px)}23.43%{transform:translateX(-3200px)}23.8%{transform:translateX(-3360px)}24.57%{transform:translateX(-3520px)}25.51%{transform:translateX(-3600px)}25.52%{transform:translateX(-3680px)}26.69%{transform:translateX(-3840px)}27.27%{transform:translateX(-4000px)}29.52%{transform:translateX(-4160px)}30.17%{transform:translateX(-4320px)}30.87%{transform:translateX(-4480px)}31.29%{transform:translateX(-4560px)}31.3%{transform:translateX(-4640px)}31.79%{transform:translateX(-4800px)}32.42%{transform:translateX(-4960px)}33.27%{transform:translateX(-5120px)}33.57%{transform:translateX(-5280px)}33.98%{transform:translateX(-5440px)}34.93%{transform:translateX(-5600px)}35.41%{transform:translateX(-5760px)}35.92%{transform:translateX(-5920px)}36.59%{transform:translateX(-6080px)}36.91%{transform:translateX(-6240px)}37.19%{transform:translateX(-6400px)}38.19%{transform:translateX(-6480px)}38.2%{transform:translateX(-6560px)}41.44%{transform:translateX(-6640px)}41.45%{transform:translateX(-6720px)}41.46%{transform:translateX(-6800px)}41.47%{transform:translateX(-6880px)}48.61%{transform:translateX(-7120px)}70.39%{transform:translateX(-7280px)}70.4%{transform:translateX(-7440px)}70.42%{transform:translateX(-7520px)}76.35%{transform:translateX(-7680px)}81.43%{transform:translateX(-7920px)}82.02%{transform:translateX(-8160px)}87.92%{transform:translateX(-8240px)}87.93%{transform:translateX(-8480px)}87.94%{transform:translateX(-8560px)}90.12%{transform:translateX(-8640px)}90.13%{transform:translateX(-8720px)}91.21%{transform:translateX(-8800px)}91.22%{transform:translateX(-8880px)}92.31%{transform:translateX(-9040px)}94.87%{transform:translateX(-9280px)}95.16%{transform:translateX(-9360px)}to{transform:translateX(-9520px)}}.a{fill:#282d35}.h,.i{fill:#e88388;white-space:pre}.i{fill:#b9bfca;font-weight:700}.j,.k,.l,.m,.o{fill:#b9c0cb;white-space:pre}.k,.l,.m,.o{fill:#71bef2}.l,.m,.o{fill:#a8cc8c}.m,.o{fill:#66c2cd}.o{fill:#6f7783}</style><g font-family="Monaco,Consolas,Menlo,'Bitstream Vera Sans Mono','Powerline Symbols',monospace" font-size="1.67"><defs><symbol id="1"><text y="1.67" style="white-space:pre" fill="#71bef2" font-weight="700">github/dwmkerr/terminal-ai</text><text x="27.054" y="1.67" style="white-space:pre" fill="#a8cc8c" text-decoration="underline">main</text><text x="32.064" y="1.67" class="h">!</text></symbol><symbol id="2"><text y="1.67" class="i">$</text></symbol><symbol id="3"><text y="1.67" class="i">$</text><text x="2.004" y="1.67" class="j">ai</text></symbol><symbol id="4"><text y="1.67" class="k">?</text><text x="2.004" y="1.67" class="i">chat:</text></symbol><symbol id="5"><text y="1.67" class="k">?</text><text x="2.004" y="1.67" class="i">chat:</text><text x="8.016" y="1.67" class="j">h</text></symbol><symbol id="6"><text y="1.67" class="k">?</text><text x="2.004" y="1.67" class="i">chat:</text><text x="8.016" y="1.67" class="j">ho</text></symbol><symbol id="7"><text y="1.67" class="k">?</text><text x="2.004" y="1.67" class="i">chat:</text><text x="8.016" y="1.67" class="j">how</text></symbol><symbol id="8"><text y="1.67" class="k">?</text><text x="2.004" y="1.67" class="i">chat:</text><text x="8.016" y="1.67" class="j">how</text><text x="12.024" y="1.67" class="j">c</text></symbol><symbol id="9"><text y="1.67" class="k">?</text><text x="2.004" y="1.67" class="i">chat:</text><text x="8.016" y="1.67" class="j">how</text><text x="12.024" y="1.67" class="j">ca</text></symbol><symbol id="10"><text y="1.67" class="k">?</text><text x="2.004" y="1.67" class="i">chat:</text><text x="8.016" y="1.67" class="j">how</text><text x="12.024" y="1.67" class="j">can</text></symbol><symbol id="11"><text y="1.67" class="k">?</text><text x="2.004" y="1.67" class="i">chat:</text><text x="8.016" y="1.67" class="j">how</text><text x="12.024" y="1.67" class="j">can</text><text x="16.032" y="1.67" class="j">I</text></symbol><symbol id="12"><text y="1.67" class="k">?</text><text x="2.004" y="1.67" class="i">chat:</text><text x="8.016" y="1.67" class="j">how</text><text x="12.024" y="1.67" class="j">can</text><text x="16.032" y="1.67" class="j">I</text><text x="18.036" y="1.67" class="j">c</text></symbol><symbol id="13"><text y="1.67" class="k">?</text><text x="2.004" y="1.67" class="i">chat:</text><text x="8.016" y="1.67" class="j">how</text><text x="12.024" y="1.67" class="j">can</text><text x="16.032" y="1.67" class="j">I</text><text x="18.036" y="1.67" class="j">cr</text></symbol><symbol id="14"><text y="1.67" class="k">?</text><text x="2.004" y="1.67" class="i">chat:</text><text x="8.016" y="1.67" class="j">how</text><text x="12.024" y="1.67" class="j">can</text><text x="16.032" y="1.67" class="j">I</text><text x="18.036" y="1.67" class="j">cre</text></symbol><symbol id="15"><text y="1.67" class="k">?</text><text x="2.004" y="1.67" class="i">chat:</text><text x="8.016" y="1.67" class="j">how</text><text x="12.024" y="1.67" class="j">can</text><text x="16.032" y="1.67" class="j">I</text><text x="18.036" y="1.67" class="j">crea</text></symbol><symbol id="16"><text y="1.67" class="k">?</text><text x="2.004" y="1.67" class="i">chat:</text><text x="8.016" y="1.67" class="j">how</text><text x="12.024" y="1.67" class="j">can</text><text x="16.032" y="1.67" class="j">I</text><text x="18.036" y="1.67" class="j">creat</text></symbol><symbol id="17"><text y="1.67" class="k">?</text><text x="2.004" y="1.67" class="i">chat:</text><text x="8.016" y="1.67" class="j">how</text><text x="12.024" y="1.67" class="j">can</text><text x="16.032" y="1.67" class="j">I</text><text x="18.036" y="1.67" class="j">create</text></symbol><symbol id="18"><text y="1.67" class="k">?</text><text x="2.004" y="1.67" class="i">chat:</text><text x="8.016" y="1.67" class="j">how</text><text x="12.024" y="1.67" class="j">can</text><text x="16.032" y="1.67" class="j">I</text><text x="18.036" y="1.67" class="j">create</text><text x="25.05" y="1.67" class="j">a</text></symbol><symbol id="19"><text y="1.67" class="k">?</text><text x="2.004" y="1.67" class="i">chat:</text><text x="8.016" y="1.67" class="j">how</text><text x="12.024" y="1.67" class="j">can</text><text x="16.032" y="1.67" class="j">I</text><text x="18.036" y="1.67" class="j">create</text><text x="25.05" y="1.67" class="j">a</text><text x="27.054" y="1.67" class="j">c</text></symbol><symbol id="20"><text y="1.67" class="k">?</text><text x="2.004" y="1.67" class="i">chat:</text><text x="8.016" y="1.67" class="j">how</text><text x="12.024" y="1.67" class="j">can</text><text x="16.032" y="1.67" class="j">I</text><text x="18.036" y="1.67" class="j">create</text><text x="25.05" y="1.67" class="j">a</text><text x="27.054" y="1.67" class="j">ca</text></symbol><symbol id="21"><text y="1.67" class="k">?</text><text x="2.004" y="1.67" class="i">chat:</text><text x="8.016" y="1.67" class="j">how</text><text x="12.024" y="1.67" class="j">can</text><text x="16.032" y="1.67" class="j">I</text><text x="18.036" y="1.67" class="j">create</text><text x="25.05" y="1.67" class="j">a</text><text x="27.054" y="1.67" class="j">cae</text></symbol><symbol id="22"><text y="1.67" class="k">?</text><text x="2.004" y="1.67" class="i">chat:</text><text x="8.016" y="1.67" class="j">how</text><text x="12.024" y="1.67" class="j">can</text><text x="16.032" y="1.67" class="j">I</text><text x="18.036" y="1.67" class="j">create</text><text x="25.05" y="1.67" class="j">a</text><text x="27.054" y="1.67" class="j">cael</text></symbol><symbol id="23"><text y="1.67" class="k">?</text><text x="2.004" y="1.67" class="i">chat:</text><text x="8.016" y="1.67" class="j">how</text><text x="12.024" y="1.67" class="j">can</text><text x="16.032" y="1.67" class="j">I</text><text x="18.036" y="1.67" class="j">create</text><text x="25.05" y="1.67" class="j">a</text><text x="27.054" y="1.67" class="j">cal</text></symbol><symbol id="24"><text y="1.67" class="k">?</text><text x="2.004" y="1.67" class="i">chat:</text><text x="8.016" y="1.67" class="j">how</text><text x="12.024" y="1.67" class="j">can</text><text x="16.032" y="1.67" class="j">I</text><text x="18.036" y="1.67" class="j">create</text><text x="25.05" y="1.67" class="j">a</text><text x="27.054" y="1.67" class="j">cale</text></symbol><symbol id="25"><text y="1.67" class="k">?</text><text x="2.004" y="1.67" class="i">chat:</text><text x="8.016" y="1.67" class="j">how</text><text x="12.024" y="1.67" class="j">can</text><text x="16.032" y="1.67" class="j">I</text><text x="18.036" y="1.67" class="j">create</text><text x="25.05" y="1.67" class="j">a</text><text x="27.054" y="1.67" class="j">calen</text></symbol><symbol id="26"><text y="1.67" class="k">?</text><text x="2.004" y="1.67" class="i">chat:</text><text x="8.016" y="1.67" class="j">how</text><text x="12.024" y="1.67" class="j">can</text><text x="16.032" y="1.67" class="j">I</text><text x="18.036" y="1.67" class="j">create</text><text x="25.05" y="1.67" class="j">a</text><text x="27.054" y="1.67" class="j">calend</text></symbol><symbol id="27"><text y="1.67" class="k">?</text><text x="2.004" y="1.67" class="i">chat:</text><text x="8.016" y="1.67" class="j">how</text><text x="12.024" y="1.67" class="j">can</text><text x="16.032" y="1.67" class="j">I</text><text x="18.036" y="1.67" class="j">create</text><text x="25.05" y="1.67" class="j">a</text><text x="27.054" y="1.67" class="j">calenda</text></symbol><symbol id="28"><text y="1.67" class="k">?</text><text x="2.004" y="1.67" class="i">chat:</text><text x="8.016" y="1.67" class="j">how</text><text x="12.024" y="1.67" class="j">can</text><text x="16.032" y="1.67" class="j">I</text><text x="18.036" y="1.67" class="j">create</text><text x="25.05" y="1.67" class="j">a</text><text x="27.054" y="1.67" class="j">calendar</text></symbol><symbol id="29"><text y="1.67" class="k">?</text><text x="2.004" y="1.67" class="i">chat:</text><text x="8.016" y="1.67" class="j">how</text><text x="12.024" y="1.67" class="j">can</text><text x="16.032" y="1.67" class="j">I</text><text x="18.036" y="1.67" class="j">create</text><text x="25.05" y="1.67" class="j">a</text><text x="27.054" y="1.67" class="j">calendar</text><text x="36.072" y="1.67" class="j">i</text></symbol><symbol id="30"><text y="1.67" class="k">?</text><text x="2.004" y="1.67" class="i">chat:</text><text x="8.016" y="1.67" class="j">how</text><text x="12.024" y="1.67" class="j">can</text><text x="16.032" y="1.67" class="j">I</text><text x="18.036" y="1.67" class="j">create</text><text x="25.05" y="1.67" class="j">a</text><text x="27.054" y="1.67" class="j">calendar</text><text x="36.072" y="1.67" class="j">in</text></symbol><symbol id="31"><text y="1.67" class="k">?</text><text x="2.004" y="1.67" class="i">chat:</text><text x="8.016" y="1.67" class="j">how</text><text x="12.024" y="1.67" class="j">can</text><text x="16.032" y="1.67" class="j">I</text><text x="18.036" y="1.67" class="j">create</text><text x="25.05" y="1.67" class="j">a</text><text x="27.054" y="1.67" class="j">calendar</text><text x="36.072" y="1.67" class="j">inv</text></symbol><symbol id="32"><text y="1.67" class="k">?</text><text x="2.004" y="1.67" class="i">chat:</text><text x="8.016" y="1.67" class="j">how</text><text x="12.024" y="1.67" class="j">can</text><text x="16.032" y="1.67" class="j">I</text><text x="18.036" y="1.67" class="j">create</text><text x="25.05" y="1.67" class="j">a</text><text x="27.054" y="1.67" class="j">calendar</text><text x="36.072" y="1.67" class="j">invi</text></symbol><symbol id="33"><text y="1.67" class="k">?</text><text x="2.004" y="1.67" class="i">chat:</text><text x="8.016" y="1.67" class="j">how</text><text x="12.024" y="1.67" class="j">can</text><text x="16.032" y="1.67" class="j">I</text><text x="18.036" y="1.67" class="j">create</text><text x="25.05" y="1.67" class="j">a</text><text x="27.054" y="1.67" class="j">calendar</text><text x="36.072" y="1.67" class="j">invit</text></symbol><symbol id="34"><text y="1.67" class="k">?</text><text x="2.004" y="1.67" class="i">chat:</text><text x="8.016" y="1.67" class="j">how</text><text x="12.024" y="1.67" class="j">can</text><text x="16.032" y="1.67" class="j">I</text><text x="18.036" y="1.67" class="j">create</text><text x="25.05" y="1.67" class="j">a</text><text x="27.054" y="1.67" class="j">calendar</text><text x="36.072" y="1.67" class="j">invite</text></symbol><symbol id="35"><text y="1.67" class="k">?</text><text x="2.004" y="1.67" class="i">chat:</text><text x="8.016" y="1.67" class="j">how</text><text x="12.024" y="1.67" class="j">can</text><text x="16.032" y="1.67" class="j">I</text><text x="18.036" y="1.67" class="j">create</text><text x="25.05" y="1.67" class="j">a</text><text x="27.054" y="1.67" class="j">calendar</text><text x="36.072" y="1.67" class="j">invite?</text></symbol><symbol id="36"><text y="1.67" class="l">✔</text><text x="2.004" y="1.67" class="i">chat:</text><text x="8.016" y="1.67" class="m">how</text><text x="12.024" y="1.67" class="m">can</text><text x="16.032" y="1.67" class="m">I</text><text x="18.036" y="1.67" class="m">create</text><text x="25.05" y="1.67" class="m">a</text><text x="27.054" y="1.67" class="m">calendar</text><text x="36.072" y="1.67" class="m">invite?</text></symbol><symbol id="37"><text y="1.67" class="i">chatgpt:</text><text x="9.018" y="1.67" class="j">You</text><text x="13.026" y="1.67" class="j">can</text><text x="17.034" y="1.67" class="j">create</text><text x="24.048" y="1.67" class="j">a</text><text x="26.052" y="1.67" class="j">calendar</text><text x="35.07" y="1.67" class="j">invite</text><text x="42.084" y="1.67" class="j">using</text><text x="48.096" y="1.67" class="j">the</text><text x="52.104" y="1.67" style="white-space:pre" fill="#dbab79">icalBuddy</text><text x="62.124" y="1.67" class="j">command</text><text x="70.14" y="1.67" class="j">in</text><text x="73.146" y="1.67" class="j">your</text><text x="78.156" y="1.67" class="j">te</text></symbol><symbol id="38"><text y="1.67" class="j">rminal.</text><text x="8.016" y="1.67" class="j">Here</text><text x="13.026" y="1.67" class="j">is</text><text x="16.032" y="1.67" class="j">an</text><text x="19.038" y="1.67" class="j">example</text><text x="27.054" y="1.67" class="j">command</text><text x="35.07" y="1.67" class="j">to</text><text x="38.076" y="1.67" class="j">create</text><text x="45.09" y="1.67" class="j">a</text><text x="47.094" y="1.67" class="j">calendar</text><text x="56.112" y="1.67" class="j">event:</text></symbol><symbol id="39"><text x="4.008" y="1.67" class="j">icalBuddy</text><text x="14.028" y="1.67" class="h">&quot;title=Meeting</text><text x="29.058" y="1.67" class="h">with</text><text x="34.068" y="1.67" class="h">Client&quot;</text><text x="42.084" y="1.67" class="h">&quot;datetime=20220801T140000&quot;</text><text x="69.138" y="1.67" class="h">&quot;enddatetim</text></symbol><symbol id="40"><text y="1.67" class="h">e=20220801T150000&quot;</text><text x="19.038" y="1.67" class="h">&quot;location=Zoom&quot;</text></symbol><symbol id="41"><text y="1.67" class="j">This</text><text x="5.01" y="1.67" class="j">command</text><text x="13.026" y="1.67" class="j">will</text><text x="18.036" y="1.67" class="j">create</text><text x="25.05" y="1.67" class="j">a</text><text x="27.054" y="1.67" class="j">calendar</text><text x="36.072" y="1.67" class="j">event</text><text x="42.084" y="1.67" class="j">titled</text><text x="49.098" y="1.67" class="j">&quot;Meeting</text><text x="58.116" y="1.67" class="j">with</text><text x="63.126" y="1.67" class="j">Client&quot;</text><text x="71.142" y="1.67" class="j">on</text><text x="74.148" y="1.67" class="j">August</text></symbol><symbol id="42"><text x="1.002" y="1.67" class="j">1st,</text><text x="6.012" y="1.67" class="j">2022,</text><text x="12.024" y="1.67" class="j">from</text><text x="17.034" y="1.67" class="j">2:00</text><text x="22.044" y="1.67" class="j">PM</text><text x="25.05" y="1.67" class="j">to</text><text x="28.056" y="1.67" class="j">3:00</text><text x="33.066" y="1.67" class="j">PM</text><text x="36.072" y="1.67" class="j">with</text><text x="41.082" y="1.67" class="j">the</text><text x="45.09" y="1.67" class="j">location</text><text x="54.108" y="1.67" class="j">set</text><text x="58.116" y="1.67" class="j">as</text><text x="61.122" y="1.67" class="j">&quot;Zoom&quot;.</text></symbol><symbol id="43"><text y="1.67" class="o">(Reply</text><text x="7.014" y="1.67" class="o">below</text><text x="13.026" y="1.67" class="o">or</text><text x="16.032" y="1.67" class="o">press</text><text x="22.044" y="1.67" class="o">Enter</text><text x="28.056" y="1.67" class="o">for</text><text x="32.064" y="1.67" class="o">more</text><text x="37.074" y="1.67" class="o">options...)</text></symbol><symbol id="44"><text y="1.67" class="l">✔</text><text x="2.004" y="1.67" class="i">chat:</text></symbol><symbol id="45"><text y="1.67" class="k">?</text><text x="2.004" y="1.67" class="i">What</text><text x="7.014" y="1.67" class="i">next?:</text><text x="14.028" y="1.67" class="j">(Use</text><text x="19.038" y="1.67" class="j">arrow</text><text x="25.05" y="1.67" class="j">keys)</text></symbol><symbol id="46"><text y="1.67" class="m">❯</text><text x="2.004" y="1.67" class="m">Reply</text></symbol><symbol id="47"><text x="2.004" y="1.67" class="j">Copy</text><text x="7.014" y="1.67" class="j">Response</text></symbol><symbol id="48"><text x="2.004" y="1.67" class="j">Save</text><text x="7.014" y="1.67" class="j">Response</text></symbol><symbol id="49"><text x="2.004" y="1.67" class="j">Quit</text></symbol><symbol id="50"><text y="1.67" class="k">?</text><text x="2.004" y="1.67" class="i">What</text><text x="7.014" y="1.67" class="i">next?:</text></symbol><symbol id="51"><text x="2.004" y="1.67" class="j">Reply</text></symbol><symbol id="52"><text y="1.67" class="m">❯</text><text x="2.004" y="1.67" class="m">Copy</text><text x="7.014" y="1.67" class="m">Response</text></symbol><symbol id="53"><text y="1.67" class="l">✔</text><text x="2.004" y="1.67" class="i">What</text><text x="7.014" y="1.67" class="i">next?:</text><text x="14.028" y="1.67" class="m">Copy</text><text x="19.038" y="1.67" class="m">Response</text></symbol><symbol id="54"><text y="1.67" class="j">✅</text><text x="2.004" y="1.67" class="j">Response</text><text x="11.022" y="1.67" class="j">copied</text><text x="18.036" y="1.67" class="j">to</text><text x="21.042" y="1.67" class="j">clipboard!</text></symbol><symbol id="55"><text y="1.67" class="m">❯</text><text x="2.004" y="1.67" class="m">Save</text><text x="7.014" y="1.67" class="m">Response</text></symbol><symbol id="56"><text y="1.67" class="l">✔</text><text x="2.004" y="1.67" class="i">What</text><text x="7.014" y="1.67" class="i">next?:</text><text x="14.028" y="1.67" class="m">Quit</text></symbol><symbol id="a"><path fill="transparent" d="M0 0h80v15H0z"/></symbol></defs><path class="a" d="M0 0h80v32.565H0z"/><g style="animation-duration:21.389365s;animation-iteration-count:infinite;animation-name:q;animation-timing-function:steps(1,end)"><svg width="9600"><svg><use xlink:href="#a"/><use xlink:href="#1" y="2.171"/><use xlink:href="#2" y="4.342"/></svg><svg x="80"><use xlink:href="#a"/><use xlink:href="#1" y="2.171"/><text y="6.012" class="i">$</text><text x="2.004" y="6.012" class="j">a</text></svg><svg x="160"><use xlink:href="#a"/><use xlink:href="#1" y="2.171"/><use xlink:href="#3" y="4.342"/></svg><svg x="240"><use xlink:href="#a"/><use xlink:href="#1" y="2.171"/><use xlink:href="#3" y="4.342"/></svg><svg x="320"><use xlink:href="#a"/><use xlink:href="#1" y="2.171"/><use xlink:href="#3" y="4.342"/><use xlink:href="#4" y="6.513"/></svg><svg x="400"><use xlink:href="#a"/><use xlink:href="#1" y="2.171"/><use xlink:href="#3" y="4.342"/><use xlink:href="#4" y="6.513"/></svg><svg x="480"><use xlink:href="#a"/><use xlink:href="#1" y="2.171"/><use xlink:href="#3" y="4.342"/><use xlink:href="#5" y="6.513"/></svg><svg x="560"><use xlink:href="#a"/><use xlink:href="#1" y="2.171"/><use xlink:href="#3" y="4.342"/><use xlink:href="#5" y="6.513"/></svg><svg x="640"><use xlink:href="#a"/><use xlink:href="#1" y="2.171"/><use xlink:href="#3" y="4.342"/><use xlink:href="#6" y="6.513"/></svg><svg x="720"><use xlink:href="#a"/><use xlink:href="#1" y="2.171"/><use xlink:href="#3" y="4.342"/><use xlink:href="#6" y="6.513"/></svg><svg x="800"><use xlink:href="#a"/><use xlink:href="#1" y="2.171"/><use xlink:href="#3" y="4.342"/><use xlink:href="#7" y="6.513"/></svg><svg x="880"><use xlink:href="#a"/><use xlink:href="#1" y="2.171"/><use xlink:href="#3" y="4.342"/><use xlink:href="#7" y="6.513"/></svg><svg x="960"><use xlink:href="#a"/><use xlink:href="#1" y="2.171"/><use xlink:href="#3" y="4.342"/><use xlink:href="#7" y="6.513"/></svg><svg x="1040"><use xlink:href="#a"/><use xlink:href="#1" y="2.171"/><use xlink:href="#3" y="4.342"/><use xlink:href="#7" y="6.513"/></svg><svg x="1120"><use xlink:href="#a"/><use xlink:href="#1" y="2.171"/><use xlink:href="#3" y="4.342"/><use xlink:href="#8" y="6.513"/></svg><svg x="1200"><use xlink:href="#a"/><use xlink:href="#1" y="2.171"/><use xlink:href="#3" y="4.342"/><use xlink:href="#8" y="6.513"/></svg><svg x="1280"><use xlink:href="#a"/><use xlink:href="#1" y="2.171"/><use xlink:href="#3" y="4.342"/><use xlink:href="#9" y="6.513"/></svg><svg x="1360"><use xlink:href="#a"/><use xlink:href="#1" y="2.171"/><use xlink:href="#3" y="4.342"/><use xlink:href="#9" y="6.513"/></svg><svg x="1440"><use xlink:href="#a"/><use xlink:href="#1" y="2.171"/><use xlink:href="#3" y="4.342"/><use xlink:href="#10" y="6.513"/></svg><svg x="1520"><use xlink:href="#a"/><use xlink:href="#1" y="2.171"/><use xlink:href="#3" y="4.342"/><use xlink:href="#10" y="6.513"/></svg><svg x="1600"><use xlink:href="#a"/><use xlink:href="#1" y="2.171"/><use xlink:href="#3" y="4.342"/><use xlink:href="#10" y="6.513"/></svg><svg x="1680"><use xlink:href="#a"/><use xlink:href="#1" y="2.171"/><use xlink:href="#3" y="4.342"/><use xlink:href="#10" y="6.513"/></svg><svg x="1760"><use xlink:href="#a"/><use xlink:href="#1" y="2.171"/><use xlink:href="#3" y="4.342"/><use xlink:href="#11" y="6.513"/></svg><svg x="1840"><use xlink:href="#a"/><use xlink:href="#1" y="2.171"/><use xlink:href="#3" y="4.342"/><use xlink:href="#11" y="6.513"/></svg><svg x="1920"><use xlink:href="#a"/><use xlink:href="#1" y="2.171"/><use xlink:href="#3" y="4.342"/><use xlink:href="#11" y="6.513"/></svg><svg x="2000"><use xlink:href="#a"/><use xlink:href="#1" y="2.171"/><use xlink:href="#3" y="4.342"/><use xlink:href="#11" y="6.513"/></svg><svg x="2080"><use xlink:href="#a"/><use xlink:href="#1" y="2.171"/><use xlink:href="#3" y="4.342"/><use xlink:href="#12" y="6.513"/></svg><svg x="2160"><use xlink:href="#a"/><use xlink:href="#1" y="2.171"/><use xlink:href="#3" y="4.342"/><use xlink:href="#12" y="6.513"/></svg><svg x="2240"><use xlink:href="#a"/><use xlink:href="#1" y="2.171"/><use xlink:href="#3" y="4.342"/><use xlink:href="#13" y="6.513"/></svg><svg x="2320"><use xlink:href="#a"/><use xlink:href="#1" y="2.171"/><use xlink:href="#3" y="4.342"/><use xlink:href="#13" y="6.513"/></svg><svg x="2400"><use xlink:href="#a"/><use xlink:href="#1" y="2.171"/><use xlink:href="#3" y="4.342"/><use xlink:href="#14" y="6.513"/></svg><svg x="2480"><use xlink:href="#a"/><use xlink:href="#1" y="2.171"/><use xlink:href="#3" y="4.342"/><use xlink:href="#14" y="6.513"/></svg><svg x="2560"><use xlink:href="#a"/><use xlink:href="#1" y="2.171"/><use xlink:href="#3" y="4.342"/><use xlink:href="#15" y="6.513"/></svg><svg x="2640"><use xlink:href="#a"/><use xlink:href="#1" y="2.171"/><use xlink:href="#3" y="4.342"/><use xlink:href="#15" y="6.513"/></svg><svg x="2720"><use xlink:href="#a"/><use xlink:href="#1" y="2.171"/><use xlink:href="#3" y="4.342"/><use xlink:href="#16" y="6.513"/></svg><svg x="2800"><use xlink:href="#a"/><use xlink:href="#1" y="2.171"/><use xlink:href="#3" y="4.342"/><use xlink:href="#16" y="6.513"/></svg><svg x="2880"><use xlink:href="#a"/><use xlink:href="#1" y="2.171"/><use xlink:href="#3" y="4.342"/><use xlink:href="#17" y="6.513"/></svg><svg x="2960"><use xlink:href="#a"/><use xlink:href="#1" y="2.171"/><use xlink:href="#3" y="4.342"/><use xlink:href="#17" y="6.513"/></svg><svg x="3040"><use xlink:href="#a"/><use xlink:href="#1" y="2.171"/><use xlink:href="#3" y="4.342"/><use xlink:href="#17" y="6.513"/></svg><svg x="3120"><use xlink:href="#a"/><use xlink:href="#1" y="2.171"/><use xlink:href="#3" y="4.342"/><use xlink:href="#17" y="6.513"/></svg><svg x="3200"><use xlink:href="#a"/><use xlink:href="#1" y="2.171"/><use xlink:href="#3" y="4.342"/><use xlink:href="#18" y="6.513"/></svg><svg x="3280"><use xlink:href="#a"/><use xlink:href="#1" y="2.171"/><use xlink:href="#3" y="4.342"/><use xlink:href="#18" y="6.513"/></svg><svg x="3360"><use xlink:href="#a"/><use xlink:href="#1" y="2.171"/><use xlink:href="#3" y="4.342"/><use xlink:href="#18" y="6.513"/></svg><svg x="3440"><use xlink:href="#a"/><use xlink:href="#1" y="2.171"/><use xlink:href="#3" y="4.342"/><use xlink:href="#18" y="6.513"/></svg><svg x="3520"><use xlink:href="#a"/><use xlink:href="#1" y="2.171"/><use xlink:href="#3" y="4.342"/><use xlink:href="#19" y="6.513"/></svg><svg x="3600"><use xlink:href="#a"/><use xlink:href="#1" y="2.171"/><use xlink:href="#3" y="4.342"/><use xlink:href="#19" y="6.513"/></svg><svg x="3680"><use xlink:href="#a"/><use xlink:href="#1" y="2.171"/><use xlink:href="#3" y="4.342"/><use xlink:href="#20" y="6.513"/></svg><svg x="3760"><use xlink:href="#a"/><use xlink:href="#1" y="2.171"/><use xlink:href="#3" y="4.342"/><use xlink:href="#20" y="6.513"/></svg><svg x="3840"><use xlink:href="#a"/><use xlink:href="#1" y="2.171"/><use xlink:href="#3" y="4.342"/><use xlink:href="#21" y="6.513"/></svg><svg x="3920"><use xlink:href="#a"/><use xlink:href="#1" y="2.171"/><use xlink:href="#3" y="4.342"/><use xlink:href="#21" y="6.513"/></svg><svg x="4000"><use xlink:href="#a"/><use xlink:href="#1" y="2.171"/><use xlink:href="#3" y="4.342"/><use xlink:href="#22" y="6.513"/></svg><svg x="4080"><use xlink:href="#a"/><use xlink:href="#1" y="2.171"/><use xlink:href="#3" y="4.342"/><use xlink:href="#22" y="6.513"/></svg><svg x="4160"><use xlink:href="#a"/><use xlink:href="#1" y="2.171"/><use xlink:href="#3" y="4.342"/><use xlink:href="#21" y="6.513"/></svg><svg x="4240"><use xlink:href="#a"/><use xlink:href="#1" y="2.171"/><use xlink:href="#3" y="4.342"/><use xlink:href="#21" y="6.513"/></svg><svg x="4320"><use xlink:href="#a"/><use xlink:href="#1" y="2.171"/><use xlink:href="#3" y="4.342"/><use xlink:href="#20" y="6.513"/></svg><svg x="4400"><use xlink:href="#a"/><use xlink:href="#1" y="2.171"/><use xlink:href="#3" y="4.342"/><use xlink:href="#20" y="6.513"/></svg><svg x="4480"><use xlink:href="#a"/><use xlink:href="#1" y="2.171"/><use xlink:href="#3" y="4.342"/><use xlink:href="#23" y="6.513"/></svg><svg x="4560"><use xlink:href="#a"/><use xlink:href="#1" y="2.171"/><use xlink:href="#3" y="4.342"/><use xlink:href="#23" y="6.513"/></svg><svg x="4640"><use xlink:href="#a"/><use xlink:href="#1" y="2.171"/><use xlink:href="#3" y="4.342"/><use xlink:href="#24" y="6.513"/></svg><svg x="4720"><use xlink:href="#a"/><use xlink:href="#1" y="2.171"/><use xlink:href="#3" y="4.342"/><use xlink:href="#24" y="6.513"/></svg><svg x="4800"><use xlink:href="#a"/><use xlink:href="#1" y="2.171"/><use xlink:href="#3" y="4.342"/><use xlink:href="#25" y="6.513"/></svg><svg x="4880"><use xlink:href="#a"/><use xlink:href="#1" y="2.171"/><use xlink:href="#3" y="4.342"/><use xlink:href="#25" y="6.513"/></svg><svg x="4960"><use xlink:href="#a"/><use xlink:href="#1" y="2.171"/><use xlink:href="#3" y="4.342"/><use xlink:href="#26" y="6.513"/></svg><svg x="5040"><use xlink:href="#a"/><use xlink:href="#1" y="2.171"/><use xlink:href="#3" y="4.342"/><use xlink:href="#26" y="6.513"/></svg><svg x="5120"><use xlink:href="#a"/><use xlink:href="#1" y="2.171"/><use xlink:href="#3" y="4.342"/><use xlink:href="#27" y="6.513"/></svg><svg x="5200"><use xlink:href="#a"/><use xlink:href="#1" y="2.171"/><use xlink:href="#3" y="4.342"/><use xlink:href="#27" y="6.513"/></svg><svg x="5280"><use xlink:href="#a"/><use xlink:href="#1" y="2.171"/><use xlink:href="#3" y="4.342"/><use xlink:href="#28" y="6.513"/></svg><svg x="5360"><use xlink:href="#a"/><use xlink:href="#1" y="2.171"/><use xlink:href="#3" y="4.342"/><use xlink:href="#28" y="6.513"/></svg><svg x="5440"><use xlink:href="#a"/><use xlink:href="#1" y="2.171"/><use xlink:href="#3" y="4.342"/><use xlink:href="#28" y="6.513"/></svg><svg x="5520"><use xlink:href="#a"/><use xlink:href="#1" y="2.171"/><use xlink:href="#3" y="4.342"/><use xlink:href="#28" y="6.513"/></svg><svg x="5600"><use xlink:href="#a"/><use xlink:href="#1" y="2.171"/><use xlink:href="#3" y="4.342"/><use xlink:href="#29" y="6.513"/></svg><svg x="5680"><use xlink:href="#a"/><use xlink:href="#1" y="2.171"/><use xlink:href="#3" y="4.342"/><use xlink:href="#29" y="6.513"/></svg><svg x="5760"><use xlink:href="#a"/><use xlink:href="#1" y="2.171"/><use xlink:href="#3" y="4.342"/><use xlink:href="#30" y="6.513"/></svg><svg x="5840"><use xlink:href="#a"/><use xlink:href="#1" y="2.171"/><use xlink:href="#3" y="4.342"/><use xlink:href="#30" y="6.513"/></svg><svg x="5920"><use xlink:href="#a"/><use xlink:href="#1" y="2.171"/><use xlink:href="#3" y="4.342"/><use xlink:href="#31" y="6.513"/></svg><svg x="6000"><use xlink:href="#a"/><use xlink:href="#1" y="2.171"/><use xlink:href="#3" y="4.342"/><use xlink:href="#31" y="6.513"/></svg><svg x="6080"><use xlink:href="#a"/><use xlink:href="#1" y="2.171"/><use xlink:href="#3" y="4.342"/><use xlink:href="#32" y="6.513"/></svg><svg x="6160"><use xlink:href="#a"/><use xlink:href="#1" y="2.171"/><use xlink:href="#3" y="4.342"/><use xlink:href="#32" y="6.513"/></svg><svg x="6240"><use xlink:href="#a"/><use xlink:href="#1" y="2.171"/><use xlink:href="#3" y="4.342"/><use xlink:href="#33" y="6.513"/></svg><svg x="6320"><use xlink:href="#a"/><use xlink:href="#1" y="2.171"/><use xlink:href="#3" y="4.342"/><use xlink:href="#33" y="6.513"/></svg><svg x="6400"><use xlink:href="#a"/><use xlink:href="#1" y="2.171"/><use xlink:href="#3" y="4.342"/><use xlink:href="#34" y="6.513"/></svg><svg x="6480"><use xlink:href="#a"/><use xlink:href="#1" y="2.171"/><use xlink:href="#3" y="4.342"/><use xlink:href="#34" y="6.513"/></svg><svg x="6560"><use xlink:href="#a"/><use xlink:href="#1" y="2.171"/><use xlink:href="#3" y="4.342"/><use xlink:href="#35" y="6.513"/></svg><svg x="6640"><use xlink:href="#a"/><use xlink:href="#1" y="2.171"/><use xlink:href="#3" y="4.342"/><use xlink:href="#35" y="6.513"/></svg><svg x="6720"><use xlink:href="#a"/><use xlink:href="#1" y="2.171"/><use xlink:href="#3" y="4.342"/><use xlink:href="#35" y="6.513"/></svg><svg x="6800"><use xlink:href="#a"/><use xlink:href="#1" y="2.171"/><use xlink:href="#3" y="4.342"/><use xlink:href="#36" y="6.513"/></svg><svg x="6880"><use xlink:href="#a"/><use xlink:href="#1" y="2.171"/><use xlink:href="#3" y="4.342"/><use xlink:href="#36" y="6.513"/></svg><svg x="6960"><use xlink:href="#a"/><use xlink:href="#1" y="2.171"/><use xlink:href="#3" y="4.342"/><use xlink:href="#36" y="6.513"/><use xlink:href="#37" y="8.684"/><use xlink:href="#38" y="10.855"/><use xlink:href="#39" y="15.197"/><use xlink:href="#40" y="17.368"/><use xlink:href="#41" y="21.71"/><use xlink:href="#42" y="23.881"/></svg><svg x="7040"><use xlink:href="#a"/><use xlink:href="#1" y="2.171"/><use xlink:href="#3" y="4.342"/><use xlink:href="#36" y="6.513"/><use xlink:href="#37" y="8.684"/><use xlink:href="#38" y="10.855"/><use xlink:href="#39" y="15.197"/><use xlink:href="#40" y="17.368"/><use xlink:href="#41" y="21.71"/><use xlink:href="#42" y="23.881"/><use xlink:href="#43" y="28.223"/></svg><svg x="7120"><use xlink:href="#a"/><use xlink:href="#1" y="2.171"/><use xlink:href="#3" y="4.342"/><use xlink:href="#36" y="6.513"/><use xlink:href="#37" y="8.684"/><use xlink:href="#38" y="10.855"/><use xlink:href="#39" y="15.197"/><use xlink:href="#40" y="17.368"/><use xlink:href="#41" y="21.71"/><use xlink:href="#42" y="23.881"/><use xlink:href="#43" y="28.223"/><use xlink:href="#4" y="30.394"/></svg><svg x="7200"><use xlink:href="#a"/><use xlink:href="#1" y="2.171"/><use xlink:href="#3" y="4.342"/><use xlink:href="#36" y="6.513"/><use xlink:href="#37" y="8.684"/><use xlink:href="#38" y="10.855"/><use xlink:href="#39" y="15.197"/><use xlink:href="#40" y="17.368"/><use xlink:href="#41" y="21.71"/><use xlink:href="#42" y="23.881"/><use xlink:href="#43" y="28.223"/><use xlink:href="#4" y="30.394"/></svg><svg x="7280"><use xlink:href="#a"/><use xlink:href="#1" y="2.171"/><use xlink:href="#3" y="4.342"/><use xlink:href="#36" y="6.513"/><use xlink:href="#37" y="8.684"/><use xlink:href="#38" y="10.855"/><use xlink:href="#39" y="15.197"/><use xlink:href="#40" y="17.368"/><use xlink:href="#41" y="21.71"/><use xlink:href="#42" y="23.881"/><use xlink:href="#43" y="28.223"/><use xlink:href="#44" y="30.394"/></svg><svg x="7360"><use xlink:href="#a"/><use xlink:href="#1"/><use xlink:href="#3" y="2.171"/><use xlink:href="#36" y="4.342"/><use xlink:href="#37" y="6.513"/><use xlink:href="#38" y="8.684"/><use xlink:href="#39" y="13.026"/><use xlink:href="#40" y="15.197"/><use xlink:href="#41" y="19.539"/><use xlink:href="#42" y="21.71"/><use xlink:href="#43" y="26.052"/><use xlink:href="#44" y="28.223"/></svg><svg x="7440"><use xlink:href="#a"/><use xlink:href="#1"/><use xlink:href="#3" y="2.171"/><use xlink:href="#36" y="4.342"/><use xlink:href="#37" y="6.513"/><use xlink:href="#38" y="8.684"/><use xlink:href="#39" y="13.026"/><use xlink:href="#40" y="15.197"/><use xlink:href="#41" y="19.539"/><use xlink:href="#42" y="21.71"/></svg><svg x="7520"><use xlink:href="#a"/><use xlink:href="#36"/><use xlink:href="#37" y="2.171"/><use xlink:href="#38" y="4.342"/><use xlink:href="#39" y="8.684"/><use xlink:href="#40" y="10.855"/><use xlink:href="#41" y="15.197"/><use xlink:href="#42" y="17.368"/><use xlink:href="#45" y="21.71"/><use xlink:href="#46" y="23.881"/><use xlink:href="#47" y="26.052"/><use xlink:href="#48" y="28.223"/><use xlink:href="#49" y="30.394"/></svg><svg x="7600"><use xlink:href="#a"/><use xlink:href="#36"/><use xlink:href="#37" y="2.171"/><use xlink:href="#38" y="4.342"/><use xlink:href="#39" y="8.684"/><use xlink:href="#40" y="10.855"/><use xlink:href="#41" y="15.197"/><use xlink:href="#42" y="17.368"/><use xlink:href="#45" y="21.71"/><use xlink:href="#46" y="23.881"/><use xlink:href="#47" y="26.052"/><use xlink:href="#48" y="28.223"/><use xlink:href="#49" y="30.394"/></svg><svg x="7680"><use xlink:href="#a"/><use xlink:href="#36"/><use xlink:href="#37" y="2.171"/><use xlink:href="#38" y="4.342"/><use xlink:href="#39" y="8.684"/><use xlink:href="#40" y="10.855"/><use xlink:href="#41" y="15.197"/><use xlink:href="#42" y="17.368"/><use xlink:href="#50" y="21.71"/><use xlink:href="#51" y="23.881"/><use xlink:href="#52" y="26.052"/><use xlink:href="#48" y="28.223"/><use xlink:href="#49" y="30.394"/></svg><svg x="7760"><use xlink:href="#a"/><use xlink:href="#36"/><use xlink:href="#37" y="2.171"/><use xlink:href="#38" y="4.342"/><use xlink:href="#39" y="8.684"/><use xlink:href="#40" y="10.855"/><use xlink:href="#41" y="15.197"/><use xlink:href="#42" y="17.368"/><use xlink:href="#53" y="21.71"/></svg><svg x="7840"><use xlink:href="#a"/><use xlink:href="#36"/><use xlink:href="#37" y="2.171"/><use xlink:href="#38" y="4.342"/><use xlink:href="#39" y="8.684"/><use xlink:href="#40" y="10.855"/><use xlink:href="#41" y="15.197"/><use xlink:href="#42" y="17.368"/><use xlink:href="#53" y="21.71"/></svg><svg x="7920"><use xlink:href="#a"/><use xlink:href="#36"/><use xlink:href="#37" y="2.171"/><use xlink:href="#38" y="4.342"/><use xlink:href="#39" y="8.684"/><use xlink:href="#40" y="10.855"/><use xlink:href="#41" y="15.197"/><use xlink:href="#42" y="17.368"/></svg><svg x="8000"><use xlink:href="#a"/><use xlink:href="#36"/><use xlink:href="#37" y="2.171"/><use xlink:href="#38" y="4.342"/><use xlink:href="#39" y="8.684"/><use xlink:href="#40" y="10.855"/><use xlink:href="#41" y="15.197"/><use xlink:href="#42" y="17.368"/><use xlink:href="#54" y="21.71"/></svg><svg x="8080"><use xlink:href="#a"/><use xlink:href="#36"/><use xlink:href="#37" y="2.171"/><use xlink:href="#38" y="4.342"/><use xlink:href="#39" y="8.684"/><use xlink:href="#40" y="10.855"/><use xlink:href="#41" y="15.197"/><use xlink:href="#42" y="17.368"/><use xlink:href="#54" y="21.71"/><use xlink:href="#43" y="26.052"/></svg><svg x="8160"><use xlink:href="#a"/><use xlink:href="#36"/><use xlink:href="#37" y="2.171"/><use xlink:href="#38" y="4.342"/><use xlink:href="#39" y="8.684"/><use xlink:href="#40" y="10.855"/><use xlink:href="#41" y="15.197"/><use xlink:href="#42" y="17.368"/><use xlink:href="#54" y="21.71"/><use xlink:href="#43" y="26.052"/><use xlink:href="#4" y="28.223"/></svg><svg x="8240"><use xlink:href="#a"/><use xlink:href="#36"/><use xlink:href="#37" y="2.171"/><use xlink:href="#38" y="4.342"/><use xlink:href="#39" y="8.684"/><use xlink:href="#40" y="10.855"/><use xlink:href="#41" y="15.197"/><use xlink:href="#42" y="17.368"/><use xlink:href="#54" y="21.71"/><use xlink:href="#43" y="26.052"/><use xlink:href="#4" y="28.223"/></svg><svg x="8320"><use xlink:href="#a"/><use xlink:href="#36"/><use xlink:href="#37" y="2.171"/><use xlink:href="#38" y="4.342"/><use xlink:href="#39" y="8.684"/><use xlink:href="#40" y="10.855"/><use xlink:href="#41" y="15.197"/><use xlink:href="#42" y="17.368"/><use xlink:href="#54" y="21.71"/><use xlink:href="#43" y="26.052"/><use xlink:href="#44" y="28.223"/></svg><svg x="8400"><use xlink:href="#a"/><use xlink:href="#36"/><use xlink:href="#37" y="2.171"/><use xlink:href="#38" y="4.342"/><use xlink:href="#39" y="8.684"/><use xlink:href="#40" y="10.855"/><use xlink:href="#41" y="15.197"/><use xlink:href="#42" y="17.368"/><use xlink:href="#54" y="21.71"/><use xlink:href="#43" y="26.052"/><use xlink:href="#44" y="28.223"/></svg><svg x="8480"><use xlink:href="#a"/><use xlink:href="#36"/><use xlink:href="#37" y="2.171"/><use xlink:href="#38" y="4.342"/><use xlink:href="#39" y="8.684"/><use xlink:href="#40" y="10.855"/><use xlink:href="#41" y="15.197"/><use xlink:href="#42" y="17.368"/><use xlink:href="#54" y="21.71"/></svg><svg x="8560"><use xlink:href="#a"/><use xlink:href="#38"/><use xlink:href="#39" y="4.342"/><use xlink:href="#40" y="6.513"/><use xlink:href="#41" y="10.855"/><use xlink:href="#42" y="13.026"/><use xlink:href="#54" y="17.368"/><use xlink:href="#45" y="21.71"/><use xlink:href="#46" y="23.881"/><use xlink:href="#47" y="26.052"/><use xlink:href="#48" y="28.223"/><use xlink:href="#49" y="30.394"/></svg><svg x="8640"><use xlink:href="#a"/><use xlink:href="#38"/><use xlink:href="#39" y="4.342"/><use xlink:href="#40" y="6.513"/><use xlink:href="#41" y="10.855"/><use xlink:href="#42" y="13.026"/><use xlink:href="#54" y="17.368"/><use xlink:href="#45" y="21.71"/><use xlink:href="#46" y="23.881"/><use xlink:href="#47" y="26.052"/><use xlink:href="#48" y="28.223"/><use xlink:href="#49" y="30.394"/></svg><svg x="8720"><use xlink:href="#a"/><use xlink:href="#38"/><use xlink:href="#39" y="4.342"/><use xlink:href="#40" y="6.513"/><use xlink:href="#41" y="10.855"/><use xlink:href="#42" y="13.026"/><use xlink:href="#54" y="17.368"/><use xlink:href="#50" y="21.71"/><use xlink:href="#51" y="23.881"/><use xlink:href="#52" y="26.052"/><use xlink:href="#48" y="28.223"/><use xlink:href="#49" y="30.394"/></svg><svg x="8800"><use xlink:href="#a"/><use xlink:href="#38"/><use xlink:href="#39" y="4.342"/><use xlink:href="#40" y="6.513"/><use xlink:href="#41" y="10.855"/><use xlink:href="#42" y="13.026"/><use xlink:href="#54" y="17.368"/><use xlink:href="#50" y="21.71"/><use xlink:href="#51" y="23.881"/><use xlink:href="#52" y="26.052"/><use xlink:href="#48" y="28.223"/><use xlink:href="#49" y="30.394"/></svg><svg x="8880"><use xlink:href="#a"/><use xlink:href="#38"/><use xlink:href="#39" y="4.342"/><use xlink:href="#40" y="6.513"/><use xlink:href="#41" y="10.855"/><use xlink:href="#42" y="13.026"/><use xlink:href="#54" y="17.368"/><use xlink:href="#50" y="21.71"/><use xlink:href="#51" y="23.881"/><use xlink:href="#47" y="26.052"/><use xlink:href="#55" y="28.223"/><use xlink:href="#49" y="30.394"/></svg><svg x="8960"><use xlink:href="#a"/><use xlink:href="#38"/><use xlink:href="#39" y="4.342"/><use xlink:href="#40" y="6.513"/><use xlink:href="#41" y="10.855"/><use xlink:href="#42" y="13.026"/><use xlink:href="#54" y="17.368"/><use xlink:href="#50" y="21.71"/><use xlink:href="#51" y="23.881"/><use xlink:href="#47" y="26.052"/><use xlink:href="#55" y="28.223"/><use xlink:href="#49" y="30.394"/></svg><svg x="9040"><use xlink:href="#a"/><use xlink:href="#38"/><use xlink:href="#39" y="4.342"/><use xlink:href="#40" y="6.513"/><use xlink:href="#41" y="10.855"/><use xlink:href="#42" y="13.026"/><use xlink:href="#54" y="17.368"/><use xlink:href="#50" y="21.71"/><use xlink:href="#51" y="23.881"/><use xlink:href="#47" y="26.052"/><use xlink:href="#48" y="28.223"/><text y="32.064" class="m">❯</text><text x="2.004" y="32.064" class="m">Quit</text></svg><svg x="9120"><use xlink:href="#a"/><use xlink:href="#38"/><use xlink:href="#39" y="4.342"/><use xlink:href="#40" y="6.513"/><use xlink:href="#41" y="10.855"/><use xlink:href="#42" y="13.026"/><use xlink:href="#54" y="17.368"/><use xlink:href="#56" y="21.71"/></svg><svg x="9200"><use xlink:href="#a"/><use xlink:href="#38"/><use xlink:href="#39" y="4.342"/><use xlink:href="#40" y="6.513"/><use xlink:href="#41" y="10.855"/><use xlink:href="#42" y="13.026"/><use xlink:href="#54" y="17.368"/><use xlink:href="#56" y="21.71"/></svg><svg x="9280"><use xlink:href="#a"/><use xlink:href="#38"/><use xlink:href="#39" y="4.342"/><use xlink:href="#40" y="6.513"/><use xlink:href="#41" y="10.855"/><use xlink:href="#42" y="13.026"/><use xlink:href="#54" y="17.368"/></svg><svg x="9360"><use xlink:href="#a"/><use xlink:href="#38"/><use xlink:href="#39" y="4.342"/><use xlink:href="#40" y="6.513"/><use xlink:href="#41" y="10.855"/><use xlink:href="#42" y="13.026"/><use xlink:href="#54" y="17.368"/><use xlink:href="#1" y="23.881"/><use xlink:href="#2" y="26.052"/></svg><svg x="9440"><use xlink:href="#a"/><use xlink:href="#38"/><use xlink:href="#39" y="4.342"/><use xlink:href="#40" y="6.513"/><use xlink:href="#41" y="10.855"/><use xlink:href="#42" y="13.026"/><use xlink:href="#54" y="17.368"/><use xlink:href="#1" y="23.881"/><use xlink:href="#2" y="26.052"/></svg><svg x="9520"><use xlink:href="#a"/><use xlink:href="#38"/><use xlink:href="#39" y="4.342"/><use xlink:href="#40" y="6.513"/><use xlink:href="#41" y="10.855"/><use xlink:href="#42" y="13.026"/><use xlink:href="#54" y="17.368"/><use xlink:href="#1" y="23.881"/><use xlink:href="#2" y="26.052"/><text y="29.893" class="j">exit</text></svg></svg></g></g></svg></svg>