<svg xmlns="http://www.w3.org/2000/svg" xmlns:xlink="http://www.w3.org/1999/xlink" width="840" height="385.65"><rect width="840" height="385.65" rx="5" ry="5" class="a"/><svg y="0%" x="0%"><circle cx="20" cy="20" r="6" fill="#ff5f58"/><circle cx="40" cy="20" r="6" fill="#ffbd2e"/><circle cx="60" cy="20" r="6" fill="#18c132"/></svg><svg height="325.65" viewBox="0 0 80 32.565" width="800" x="15" xmlns="http://www.w3.org/2000/svg" xmlns:xlink="http://www.w3.org/1999/xlink" y="50"><style>@keyframes s{0%{transform:translateX(0)}5.9%{transform:translateX(-80px)}8.4%{transform:translateX(-160px)}9.7%{transform:translateX(-240px)}12.1%{transform:translateX(-320px)}14.3%{transform:translateX(-400px)}16%{transform:translateX(-480px)}17.4%{transform:translateX(-560px)}19.8%{transform:translateX(-720px)}22.2%{transform:translateX(-1040px)}37.9%{transform:translateX(-1120px)}51.8%{transform:translateX(-1360px)}54.9%{transform:translateX(-1520px)}55.6%{transform:translateX(-1600px)}93.6%{transform:translateX(-1680px)}95.3%{transform:translateX(-1760px)}97.1%{transform:translateX(-1840px)}98.3%{transform:translateX(-1920px)}to{transform:translateX(-2160px)}}.a{fill:#282d35}.k{fill:#b9bfca;font-weight:700;white-space:pre}.l{fill:#b9c0cb}.l,.m,.p,.q{white-space:pre}.m{fill:#b9c0cb;font-weight:700}.p,.q{fill:#66c2cd}.q{fill:#71bef2}</style><g font-family="Monaco,Consolas,Menlo,'Bitstream Vera Sans Mono','Powerline Symbols',monospace" font-size="1.67"><defs><symbol id="1"><text y="1.67" style="white-space:pre" fill="#71bef2" font-weight="700">github/dwmkerr/terminal-ai</text><text x="27.054" y="1.67" style="white-space:pre" fill="#a8cc8c" text-decoration="underline">main</text><text x="32.064" y="1.67" style="white-space:pre" fill="#e88388">!</text><text x="34.068" y="1.67" style="white-space:pre" fill="#d290e4">conda/</text><text x="40.08" y="1.67" style="white-space:pre" fill="#d290e4" font-weight="700">base</text></symbol><symbol id="2"><text y="1.67" class="k">$</text></symbol><symbol id="3"><text y="1.67" class="k">$</text><text x="2.004" y="1.67" class="l">ai</text></symbol><symbol id="4"><text y="1.67" class="k">$</text><text x="2.004" y="1.67" class="l">ai</text><text x="5.01" y="1.67" class="l">init</text></symbol><symbol id="5"><text y="1.67" class="l">Welcome</text><text x="8.016" y="1.67" class="l">to</text><text x="11.022" y="1.67" class="m">Terminal</text><text x="20.04" y="1.67" class="m">AI</text></symbol><symbol id="6"><text y="1.67" class="l">An</text><text x="3.006" y="1.67" class="l">OpenAI</text><text x="10.02" y="1.67" class="l">or</text><text x="13.026" y="1.67" class="l">compatible</text><text x="24.048" y="1.67" class="l">key</text><text x="28.056" y="1.67" class="l">is</text><text x="31.062" y="1.67" class="l">required.</text></symbol><symbol id="7"><text y="1.67" class="l">To</text><text x="3.006" y="1.67" class="l">get</text><text x="7.014" y="1.67" class="l">a</text><text x="9.018" y="1.67" class="l">free</text><text x="14.028" y="1.67" class="l">key</text><text x="18.036" y="1.67" class="l">follow</text><text x="25.05" y="1.67" class="l">the</text><text x="29.058" y="1.67" class="l">guide</text><text x="35.07" y="1.67" class="l">at:</text></symbol><symbol id="8"><text x="2.004" y="1.67" style="white-space:pre" fill="#71bef2" text-decoration="underline">https://github.com/dwmkerr/terminal-ai#api-key</text></symbol><symbol id="9"><text x="2.004" y="1.67" class="l">OpenAI</text><text x="9.018" y="1.67" class="l">Compatible</text></symbol><symbol id="10"><text y="1.67" style="white-space:pre" fill="#a8cc8c">✔</text><text x="2.004" y="1.67" class="m">Your</text><text x="7.014" y="1.67" class="m">API</text><text x="11.022" y="1.67" class="m">key</text><text x="15.03" y="1.67" class="m">provider:</text><text x="25.05" y="1.67" class="p">Gemini</text><text x="32.064" y="1.67" class="p">(OpenAI)</text></symbol><symbol id="11"><text y="1.67" class="q">?</text><text x="2.004" y="1.67" class="m">API</text><text x="6.012" y="1.67" class="m">Key:</text></symbol><symbol id="12"><text y="1.67" class="l">Goodbye!</text></symbol><symbol id="13"><text y="1.67" class="k">$</text><text x="2.004" y="1.67" class="l">exit</text></symbol><symbol id="a"><path fill="transparent" d="M0 0h80v15H0z"/></symbol></defs><path class="a" d="M0 0h80v32.565H0z"/><g style="animation-duration:13.645332999999999s;animation-iteration-count:infinite;animation-name:s;animation-timing-function:steps(1,end)"><svg width="2240"><svg><use xlink:href="#a"/><use xlink:href="#1" y="2.171"/><use xlink:href="#2" y="4.342"/></svg><svg x="80"><use xlink:href="#a"/><use xlink:href="#1" y="2.171"/><text y="6.012" class="k">$</text><text x="2.004" y="6.012" class="l">a</text></svg><svg x="160"><use xlink:href="#a"/><use xlink:href="#1" y="2.171"/><use xlink:href="#3" y="4.342"/></svg><svg x="240"><use xlink:href="#a"/><use xlink:href="#1" y="2.171"/><use xlink:href="#3" y="4.342"/></svg><svg x="320"><use xlink:href="#a"/><use xlink:href="#1" y="2.171"/><text y="6.012" class="k">$</text><text x="2.004" y="6.012" class="l">ai</text><text x="5.01" y="6.012" class="l">i</text></svg><svg x="400"><use xlink:href="#a"/><use xlink:href="#1" y="2.171"/><text y="6.012" class="k">$</text><text x="2.004" y="6.012" class="l">ai</text><text x="5.01" y="6.012" class="l">in</text></svg><svg x="480"><use xlink:href="#a"/><use xlink:href="#1" y="2.171"/><text y="6.012" class="k">$</text><text x="2.004" y="6.012" class="l">ai</text><text x="5.01" y="6.012" class="l">ini</text></svg><svg x="560"><use xlink:href="#a"/><use xlink:href="#1" y="2.171"/><use xlink:href="#4" y="4.342"/></svg><svg x="640"><use xlink:href="#a"/><use xlink:href="#1" y="2.171"/><use xlink:href="#4" y="4.342"/></svg><svg x="720"><use xlink:href="#a"/><use xlink:href="#1" y="2.171"/><use xlink:href="#4" y="4.342"/></svg><svg x="800"><use xlink:href="#a"/><use xlink:href="#1" y="2.171"/><use xlink:href="#4" y="4.342"/><use xlink:href="#5" y="6.513"/></svg><svg x="880"><use xlink:href="#a"/><use xlink:href="#1" y="2.171"/><use xlink:href="#4" y="4.342"/><use xlink:href="#5" y="6.513"/><use xlink:href="#6" y="10.855"/><use xlink:href="#7" y="13.026"/></svg><svg x="960"><use xlink:href="#a"/><use xlink:href="#1" y="2.171"/><use xlink:href="#4" y="4.342"/><use xlink:href="#5" y="6.513"/><use xlink:href="#6" y="10.855"/><use xlink:href="#7" y="13.026"/><use xlink:href="#8" y="15.197"/></svg><svg x="1040"><use xlink:href="#a"/><use xlink:href="#1" y="2.171"/><use xlink:href="#4" y="4.342"/><use xlink:href="#5" y="6.513"/><use xlink:href="#6" y="10.855"/><use xlink:href="#7" y="13.026"/><use xlink:href="#8" y="15.197"/><text y="21.209" class="q">?</text><text x="2.004" y="21.209" class="m">Your</text><text x="7.014" y="21.209" class="m">API</text><text x="11.022" y="21.209" class="m">key</text><text x="15.03" y="21.209" class="m">provider:</text><text x="25.05" y="21.209" class="l">(Use</text><text x="30.06" y="21.209" class="l">arrow</text><text x="36.072" y="21.209" class="l">keys)</text><text y="23.38" class="p">❯</text><text x="2.004" y="23.38" class="p">OpenAI</text><text x="2.004" y="25.551" class="l">Gemini</text><text x="9.018" y="25.551" class="l">(OpenAI)</text><use xlink:href="#9" y="26.052"/><text y="29.893" class="p">OpenAI</text></svg><svg x="1120"><use xlink:href="#a"/><use xlink:href="#1" y="2.171"/><use xlink:href="#4" y="4.342"/><use xlink:href="#5" y="6.513"/><use xlink:href="#6" y="10.855"/><use xlink:href="#7" y="13.026"/><use xlink:href="#8" y="15.197"/><text y="21.209" class="q">?</text><text x="2.004" y="21.209" class="m">Your</text><text x="7.014" y="21.209" class="m">API</text><text x="11.022" y="21.209" class="m">key</text><text x="15.03" y="21.209" class="m">provider:</text><text x="2.004" y="23.38" class="l">OpenAI</text><text y="25.551" class="p">❯</text><text x="2.004" y="25.551" class="p">Gemini</text><text x="9.018" y="25.551" class="p">(OpenAI)</text><use xlink:href="#9" y="26.052"/><text y="29.893" class="p">Gemini</text><text x="7.014" y="29.893" class="p">(using</text><text x="14.028" y="29.893" class="p">OpenAI</text><text x="21.042" y="29.893" class="p">compatiblity)</text></svg><svg x="1200"><use xlink:href="#a"/><use xlink:href="#1" y="2.171"/><use xlink:href="#4" y="4.342"/><use xlink:href="#5" y="6.513"/><use xlink:href="#6" y="10.855"/><use xlink:href="#7" y="13.026"/><use xlink:href="#8" y="15.197"/><use xlink:href="#10" y="19.539"/></svg><svg x="1280"><use xlink:href="#a"/><use xlink:href="#1" y="2.171"/><use xlink:href="#4" y="4.342"/><use xlink:href="#5" y="6.513"/><use xlink:href="#6" y="10.855"/><use xlink:href="#7" y="13.026"/><use xlink:href="#8" y="15.197"/><use xlink:href="#10" y="19.539"/></svg><svg x="1360"><use xlink:href="#a"/><use xlink:href="#1" y="2.171"/><use xlink:href="#4" y="4.342"/><use xlink:href="#5" y="6.513"/><use xlink:href="#6" y="10.855"/><use xlink:href="#7" y="13.026"/><use xlink:href="#8" y="15.197"/><use xlink:href="#10" y="19.539"/><use xlink:href="#11" y="21.71"/></svg><svg x="1440"><use xlink:href="#a"/><use xlink:href="#1" y="2.171"/><use xlink:href="#4" y="4.342"/><use xlink:href="#5" y="6.513"/><use xlink:href="#6" y="10.855"/><use xlink:href="#7" y="13.026"/><use xlink:href="#8" y="15.197"/><use xlink:href="#10" y="19.539"/><use xlink:href="#11" y="21.71"/></svg><svg x="1520"><use xlink:href="#a"/><use xlink:href="#1" y="2.171"/><use xlink:href="#4" y="4.342"/><use xlink:href="#5" y="6.513"/><use xlink:href="#6" y="10.855"/><use xlink:href="#7" y="13.026"/><use xlink:href="#8" y="15.197"/><use xlink:href="#10" y="19.539"/><use xlink:href="#11" y="21.71"/><use xlink:href="#12" y="23.881"/></svg><svg x="1600"><use xlink:href="#a"/><use xlink:href="#1" y="2.171"/><use xlink:href="#4" y="4.342"/><use xlink:href="#5" y="6.513"/><use xlink:href="#6" y="10.855"/><use xlink:href="#7" y="13.026"/><use xlink:href="#8" y="15.197"/><use xlink:href="#10" y="19.539"/><use xlink:href="#11" y="21.71"/><use xlink:href="#12" y="23.881"/><use xlink:href="#1" y="28.223"/><use xlink:href="#2" y="30.394"/></svg><svg x="1680"><use xlink:href="#a"/><use xlink:href="#1" y="2.171"/><use xlink:href="#4" y="4.342"/><use xlink:href="#5" y="6.513"/><use xlink:href="#6" y="10.855"/><use xlink:href="#7" y="13.026"/><use xlink:href="#8" y="15.197"/><use xlink:href="#10" y="19.539"/><use xlink:href="#11" y="21.71"/><use xlink:href="#12" y="23.881"/><use xlink:href="#1" y="28.223"/><text y="32.064" class="k">$</text><text x="2.004" y="32.064" class="l">e</text></svg><svg x="1760"><use xlink:href="#a"/><use xlink:href="#1" y="2.171"/><use xlink:href="#4" y="4.342"/><use xlink:href="#5" y="6.513"/><use xlink:href="#6" y="10.855"/><use xlink:href="#7" y="13.026"/><use xlink:href="#8" y="15.197"/><use xlink:href="#10" y="19.539"/><use xlink:href="#11" y="21.71"/><use xlink:href="#12" y="23.881"/><use xlink:href="#1" y="28.223"/><text y="32.064" class="k">$</text><text x="2.004" y="32.064" class="l">ex</text></svg><svg x="1840"><use xlink:href="#a"/><use xlink:href="#1" y="2.171"/><use xlink:href="#4" y="4.342"/><use xlink:href="#5" y="6.513"/><use xlink:href="#6" y="10.855"/><use xlink:href="#7" y="13.026"/><use xlink:href="#8" y="15.197"/><use xlink:href="#10" y="19.539"/><use xlink:href="#11" y="21.71"/><use xlink:href="#12" y="23.881"/><use xlink:href="#1" y="28.223"/><text y="32.064" class="k">$</text><text x="2.004" y="32.064" class="l">exi</text></svg><svg x="1920"><use xlink:href="#a"/><use xlink:href="#1" y="2.171"/><use xlink:href="#4" y="4.342"/><use xlink:href="#5" y="6.513"/><use xlink:href="#6" y="10.855"/><use xlink:href="#7" y="13.026"/><use xlink:href="#8" y="15.197"/><use xlink:href="#10" y="19.539"/><use xlink:href="#11" y="21.71"/><use xlink:href="#12" y="23.881"/><use xlink:href="#1" y="28.223"/><use xlink:href="#13" y="30.394"/></svg><svg x="2000"><use xlink:href="#a"/><use xlink:href="#1"/><use xlink:href="#4" y="2.171"/><use xlink:href="#5" y="4.342"/><use xlink:href="#6" y="8.684"/><use xlink:href="#7" y="10.855"/><use xlink:href="#8" y="13.026"/><use xlink:href="#10" y="17.368"/><use xlink:href="#11" y="19.539"/><use xlink:href="#12" y="21.71"/><use xlink:href="#1" y="26.052"/><use xlink:href="#13" y="28.223"/></svg><svg x="2080"><use xlink:href="#a"/><use xlink:href="#1"/><use xlink:href="#4" y="2.171"/><use xlink:href="#5" y="4.342"/><use xlink:href="#6" y="8.684"/><use xlink:href="#7" y="10.855"/><use xlink:href="#8" y="13.026"/><use xlink:href="#10" y="17.368"/><use xlink:href="#11" y="19.539"/><use xlink:href="#12" y="21.71"/><use xlink:href="#1" y="26.052"/><use xlink:href="#13" y="28.223"/></svg><svg x="2160"><use xlink:href="#a"/><use xlink:href="#4"/><use xlink:href="#5" y="2.171"/><use xlink:href="#6" y="6.513"/><use xlink:href="#7" y="8.684"/><use xlink:href="#8" y="10.855"/><use xlink:href="#10" y="15.197"/><use xlink:href="#11" y="17.368"/><use xlink:href="#12" y="19.539"/><use xlink:href="#1" y="23.881"/><use xlink:href="#13" y="26.052"/><text y="29.893" class="l">exit</text></svg></svg></g></g></svg></svg>